{
    "asset": {
        "generator": "COLLADA2GLTF",
        "version": "2.0"
    },
    "scenes": [
        {
            "nodes": [
                0
            ]
        }
    ],
    "scene": 0,
    "nodes": [
        {
            "children": [
                4,
                3,
                2,
                1
            ],
            "name": "Y_UP"
        },
        {
            "matrix": [
                -0.5090000033378601,
                0.8560000658035278,
                -0.08500000089406967,
                0.0,
                0.5300000309944153,
                0.3900000154972077,
                0.753000020980835,
                0.0,
                0.6780000329017639,
                0.33800002932548525,
                -0.6530000567436218,
                0.0,
                140.8130035400391,
                70.2800064086914,
                -135.64401245117188,
                1.0
            ],
            "camera": 0,
            "name": "node-camera"
        },
        {
            "mesh": 0,
            "matrix": [
                1.0,
                0.0,
                0.0,
                0.0,
                0.0,
                1.0,
                0.0,
                0.0,
                0.0,
                0.0,
                1.0,
                0.0,
                -30.19900131225586,
                8.664999961853028,
                9.688000679016114,
                1.0
            ],
            "name": "node-geom2"
        },
        {
            "mesh": 1,
            "matrix": [
                1.0,
                0.0,
                0.0,
                0.0,
                0.0,
                1.0,
                0.0,
                0.0,
                0.0,
                0.0,
                1.0,
                0.0,
                -30.19900131225586,
                8.664999961853028,
                9.688000679016114,
                1.0
            ],
            "name": "node-geom1"
        },
        {
            "mesh": 2,
            "matrix": [
                1.0,
                0.0,
                0.0,
                0.0,
                0.0,
                1.0,
                0.0,
                0.0,
                0.0,
                0.0,
                1.0,
                0.0,
                -30.19900131225586,
                8.664999961853028,
                9.688000679016114,
                1.0
            ],
            "name": "node-geom0"
        }
    ],
    "cameras": [
        {
            "perspective": {
                "aspectRatio": 1.2426999807357789,
                "yfov": 0.34906554222106936,
                "zfar": 241.3164978027344,
                "znear": 173.52279663085938
            },
            "type": "perspective",
            "name": "camera"
        }
    ],
    "meshes": [
        {
            "primitives": [
                {
                    "attributes": {
                        "COLOR_0": 1,
                        "NORMAL": 2,
                        "POSITION": 3
                    },
                    "indices": 0,
                    "mode": 4,
                    "material": 0
                }
            ],
            "name": "geom2"
        },
        {
            "primitives": [
                {
                    "attributes": {
                        "COLOR_0": 5,
                        "NORMAL": 6,
                        "POSITION": 7
                    },
                    "indices": 4,
                    "mode": 4,
                    "material": 1
                }
            ],
            "name": "geom1"
        },
        {
            "primitives": [
                {
                    "attributes": {
                        "COLOR_0": 9,
                        "NORMAL": 10,
                        "POSITION": 11
                    },
                    "indices": 8,
                    "mode": 4,
                    "material": 2
                }
            ],
            "name": "geom0"
        }
    ],
    "accessors": [
        {
            "bufferView": 0,
            "byteOffset": 0,
            "componentType": 5123,
            "count": 4560,
            "max": [
                948
            ],
            "min": [
                0
            ],
            "type": "SCALAR"
        },
        {
            "bufferView": 1,
            "byteOffset": 0,
            "componentType": 5126,
            "count": 949,
            "max": [
                1.0,
                0.3243999779224396,
                0.0
            ],
            "min": [
                1.0,
                0.0,
                0.0
            ],
            "type": "VEC3"
        },
        {
            "bufferView": 1,
            "byteOffset": 11388,
            "componentType": 5126,
            "count": 949,
            "max": [
                0.999399960041046,
                1.324299931526184,
                1.3499000072479249
            ],
            "min": [
                -0.999399960041046,
                -1.324299931526184,
                -1.3499000072479249
            ],
            "type": "VEC3"
        },
        {
            "bufferView": 1,
            "byteOffset": 22776,
            "componentType": 5126,
            "count": 949,
            "max": [
                59.39099884033203,
                10.348799705505373,
                13.341899871826172
            ],
            "min": [
                38.74530029296875,
                -5.615499973297119,
                -12.873000144958496
            ],
            "type": "VEC3"
        },
        {
            "bufferView": 0,
            "byteOffset": 9120,
            "componentType": 5123,
            "count": 40752,
            "max": [
                9475
            ],
            "min": [
                0
            ],
            "type": "SCALAR"
        },
        {
            "bufferView": 1,
            "byteOffset": 34164,
            "componentType": 5126,
            "count": 9476,
            "max": [
                1.0,
                1.0,
                1.0
            ],
            "min": [
                0.0,
                0.0,
                0.0
            ],
            "type": "VEC3"
        },
        {
            "bufferView": 1,
            "byteOffset": 147876,
            "componentType": 5126,
            "count": 9476,
            "max": [
                1.3454999923706058,
                1.347499966621399,
                1.34689998626709
            ],
            "min": [
                -1.3454999923706058,
                -1.347499966621399,
                -1.34689998626709
            ],
            "type": "VEC3"
        },
        {
            "bufferView": 1,
            "byteOffset": 261588,
            "componentType": 5126,
            "count": 9476,
            "max": [
                65.03919982910156,
                10.356399536132813,
                13.341899871826172
            ],
            "min": [
                15.313599586486817,
                -29.929100036621099,
                -42.58939743041992
            ],
            "type": "VEC3"
        },
        {
            "bufferView": 0,
            "byteOffset": 90624,
            "componentType": 5123,
            "count": 38844,
            "max": [
                8916
            ],
            "min": [
                0
            ],
            "type": "SCALAR"
        },
        {
            "bufferView": 1,
            "byteOffset": 375300,
            "componentType": 5126,
            "count": 8917,
            "max": [
                1.0,
                1.0,
                1.0
            ],
            "min": [
                0.0,
                0.0,
                0.0
            ],
            "type": "VEC3"
        },
        {
            "bufferView": 1,
            "byteOffset": 482304,
            "componentType": 5126,
            "count": 8917,
            "max": [
                1.3464999198913577,
                1.3494999408721924,
                1.3460999727249146
            ],
            "min": [
                -1.3464999198913577,
                -1.3494999408721924,
                -1.3460999727249146
            ],
            "type": "VEC3"
        },
        {
            "bufferView": 1,
            "byteOffset": 589308,
            "componentType": 5126,
            "count": 8917,
            "max": [
                54.41029739379883,
                0.6990999579429627,
                0.5655999779701233
            ],
            "min": [
                15.022899627685549,
                -38.1443977355957,
                -42.58939743041992
            ],
            "type": "VEC3"
        }
    ],
    "materials": [
        {
            "pbrMetallicRoughness": {
                "metallicFactor": 0.0
            },
            "name": "default-effect"
        },
        {
            "pbrMetallicRoughness": {
                "metallicFactor": 0.0
            },
            "name": "default-effect"
        },
        {
            "pbrMetallicRoughness": {
                "metallicFactor": 0.0
            },
            "name": "default-effect"
        }
    ],
    "bufferViews": [
        {
            "buffer": 0,
            "byteOffset": 696312,
            "byteLength": 168312,
            "target": 34963
        },
        {
            "buffer": 0,
            "byteOffset": 0,
            "byteLength": 696312,
            "byteStride": 12,
            "target": 34962
        }
    ],
    "buffers": [
        {
            "byteLength": 864624,
            "uri": "data:application/octet-stream;base64,"
        }
    ]
}
